<svg xmlns="http://www.w3.org/2000/svg" viewBox="0 0 512 512">
  <rect width="512" height="512" fill="#faf5ef"/>
  <rect x="118" y="124" width="276" height="244" fill="none" stroke="#8f625d" stroke-width="8"/>
  <path d="M202 337c-28-64-34-126 6-176 27-34 68-58 112-77 27-12 50-9 58 10 4 9 3 20 8 31 8 20 32 34 42 64 14 41-4 78-44 106-35 25-86 35-126 52-22 9-40 20-56 36z" fill="#dfb8b0" opacity="0.74" stroke="#8f625d" stroke-width="8" stroke-linejoin="round"/>
  <path d="M203 337c23-72 46-111 82-144" fill="none" stroke="#8f625d" stroke-width="7" stroke-linecap="round"/>
  <path d="M379 102c-1 35 14 61 43 85" fill="none" stroke="#8f625d" stroke-width="7" stroke-linecap="round"/>
  <path d="M386 132c11 11 24 25 31 47" fill="none" stroke="#8f625d" stroke-width="5" stroke-linecap="round" opacity="0.85"/>
</svg>
